 
http://img526.imageshack.us/img526/8782/rrgbannercopy.jpg
 
http://desibbrg.org/images/49676089417438321079.jpg
 
http://desibbrg.org/images/25820414740435966725.jpg
 
http://desibbrg.org/images/14612730488763078326.jpg
 
http://desibbrg.org/images/78721564577380067411.jpg

Info - 
CAST - 
Ankush Choudhari
Sharvari Pille
Sanjay Khapare
Ramesh Vani

Media Info - 
General
Complete name                    : Gopala Re Gopala ~ Marathi Natak ~ 1CD ~ XviD ~ VCDRip.avi
Format                           : AVI
Format/Info                      : Audio Video Interleave
File size                        : 699 MiB
Duration                         : 2h 25mn
Overall bit rate                 : 673 Kbps

Video
ID                               : 0
Format                           : MPEG-4 Visual
Format profile                   : Advanced Simple@L5
Codec ID                         : XVID
Codec ID/Hint                    : XviD
Bit rate                         : 560 Kbps
Width                            : 640 pixels
Height                           : 480 pixels
Display aspect ratio             : 4:3
Frame rate                       : 25.000 fps
Color space                      : YUV
Chroma subsampling               : 4:2:0
Bit depth                        : 8 bits
Scan type                        : Progressive
Bits/(Pixel*Frame)               : 0.073
Stream size                      : 581 MiB (83%)
Writing library                  : XviD 1.2.1 (UTC 2008-12-04)

Audio
ID                               : 1
Format                           : MPEG Audio
Format version                   : Version 1
Format profile                   : Layer 3
Mode                             : Joint stereo
Mode extension                   : MS Stereo
Codec ID                         : 55
Codec ID/Hint                    : MP3
Bit rate                         : 101 Kbps
Nominal bit rate                 : 128 Kbps
Channel(s)                       : 2 channels
Sampling rate                    : 48.0 KHz
Stream size                      : 105 MiB (15%)

Ripper : san.kad23

Seeding 24x7... Extreme Seeding...


Enjoy!
